<?xml version="1.0" encoding="UTF-8"?>
<!-- Created with Inkscape (http://www.inkscape.org/) -->
<svg width="16" height="16" version="1.1" viewBox="0 0 16 16" xmlns="http://www.w3.org/2000/svg">
 <g stroke="#000" stroke-miterlimit="3">
  <path d="m1.3 8c0.56 0 0.5-1.5 1.1-1.5 0.56 0 0.56 4.5 1.1 4.5 0.56 0 0.56-7.5 1.1-7.5 0.56 0 0.56 9 1.1 9 0.62 0 0.48-11 1.1-10 0.48 0.012 0.56 12 1.1 12 0.32 0 0.61-12 1.1-12 0.56 0 0.63 10 1.1 10 0.27 0 0.56-9 1.1-9s0.55 7.5 1.1 7.5c0.32 0 0.56-4.5 1.1-4.5s0.65 1.5 1.1 1.5" fill="none" stroke-linecap="round" stroke-linejoin="round" stroke-width=".5" style="paint-order:stroke markers fill"/>
  <path d="m16 2.5h-2v-2h-1v2h-2v1h2v2h1v-2h2z" fill="#fff" stroke-linecap="square" style="paint-order:stroke markers fill"/>
 </g>
</svg>
